<svg width="140" height="32" viewBox="0 0 140 32" xmlns="http://www.w3.org/2000/svg">
  <!-- DockPilot文字 - 蓝色，霸气大号 -->
  <g transform="scale(1.1) translate(0, 1)" fill="#3490de">
    <path d="M14.395 13.6328 l1.0938 0 c-1.0645 3.1445 -3.7793 5.6152 -7.0801 6.1914 c-2.4316 0.3418 -5.1758 0.17578 -7.6465 0.17578 l1.4648 -6.3672 l-1.084 0 l1.8848 -8.2031 c1.9531 0 6.8945 -0.30273 8.8477 0.52734 c2.7051 1.1621 3.3789 4.1211 2.7539 6.7578 c-0.048828 0.3125 -0.12695 0.625 -0.23438 0.91797 z M7.1289 9.033 l-1.0547 4.5996 l1.084 0 l-0.63477 2.7344 c2.1191 0 3.3008 -0.80078 3.9551 -2.7344 l-1.084 0 c0.10742 -0.26367 0.18555 -0.57617 0.27344 -0.94727 c0.60547 -2.5293 -0.13672 -3.6523 -2.5391 -3.6523 z M27.79296875 14.541 c-0.81055 3.5547 -3.4082 5.8203 -7.0996 5.8203 c-3.6035 0 -5.2734 -2.168 -4.4336 -5.8203 c0.068359 -0.29297 0.14648 -0.5957 0.26367 -0.86914 l-1.0059 0 c1.0449 -3.0957 3.5156 -4.9707 6.875 -4.9707 c3.457 0 4.9316 2.0215 4.5703 4.9707 l0.98633 0 c-0.029297 0.27344 -0.087891 0.57617 -0.15625 0.86914 z M20.19526875 13.6719 l0.97656 0 c-0.55664 1.4648 -0.66406 3.3789 0.30273 3.3789 c0.88867 0 1.6797 -1.9141 1.7969 -3.3789 l-0.9668 0 c0.078125 -0.91797 -0.10742 -1.6602 -0.68359 -1.6602 c-0.53711 0 -1.0742 0.74219 -1.4258 1.6602 z M28.496065625 14.6875 c0.068359 -0.3125 0.14648 -0.625 0.24414 -0.89844 l-1.0352 0 c1.6016 -4.4629 6.7969 -6.3281 11.045 -3.877 l-0.81055 3.4766 l-1.6309 0 c-0.25391 -2.0117 -2.8027 -1.7578 -3.8281 0.40039 l1.0254 0 c-0.12695 0.27344 -0.23438 0.56641 -0.3125 0.89844 c-0.81055 3.5645 2.7148 2.8223 3.5742 1.2402 l1.6406 0 l-0.81055 3.5156 c-4.2578 1.582 -10.596 1.7188 -9.1016 -4.7559 z M47.753915625 13.886700000000001 l2.4902 6.1523 l-5.3125 0 l-1.0547 -2.832 l-0.6543 2.832 l-4.6191 0 l1.4648 -6.3672 l-0.98633 0 l1.9531 -8.4766 l4.6094 0 l-1.3672 5.9375 c0.69336 -0.67383 1.3379 -1.4063 2.0215 -2.0996 l5.3809 -0.0097656 l-4.6875 4.6484 l0.97656 0 z M51.8261375 13.6328 c0.63477 -2.7246 1.2695 -5.459 1.9043 -8.1836 l5.8594 0 c3.5059 0 5.957 1.8164 4.3457 5.791 c-0.41016 0.98633 -0.95703 1.7773 -1.582 2.3926 l0.88867 0 c-1.5332 1.4746 -3.6523 1.9727 -6.0938 1.9727 l-1.0156 4.3848 l-4.8633 0 l1.4648 -6.3574 l-0.9082 0 z M57.7539375 9.072 c-0.20508 0.95703 -0.43945 1.9336 -0.6543 2.9297 c2.4316 -0.12695 3.3398 -2.9297 0.6543 -2.9297 z M65.341846875 13.789100000000001 l-1.0254 0 l0.84961 -3.7793 l4.6582 0 l-0.84961 3.7793 l1.0352 0 l-1.377 6.2109 l-4.6582 0 z M71.025346875 5.234 l-0.81055 3.5352 l-4.8242 0 l0.81055 -3.5352 l4.8242 0 z M72.05076875 13.789100000000001 l-1.0645 0 l1.9824 -8.5547 l4.6191 0 l-1.9629 8.5547 l1.0547 0 l-1.4453 6.2109 l-4.6387 0 z M89.296875 14.541 c-0.81055 3.5547 -3.4082 5.8203 -7.0996 5.8203 c-3.6035 0 -5.2734 -2.168 -4.4336 -5.8203 c0.068359 -0.29297 0.14648 -0.5957 0.26367 -0.86914 l-1.0059 0 c1.0449 -3.0957 3.5156 -4.9707 6.875 -4.9707 c3.457 0 4.9316 2.0215 4.5703 4.9707 l0.98633 0 c-0.029297 0.27344 -0.087891 0.57617 -0.15625 0.86914 z M81.699175 13.6719 l0.97656 0 c-0.55664 1.4648 -0.66406 3.3789 0.30273 3.3789 c0.88867 0 1.6797 -1.9141 1.7969 -3.3789 l-0.9668 0 c0.078125 -0.91797 -0.10742 -1.6602 -0.68359 -1.6602 c-0.53711 0 -1.0742 0.74219 -1.4258 1.6602 z M91.171871875 13.789100000000001 l-1.0645 0 l0.3125 -1.4453 l-1.1523 0 l0.74219 -3.2422 l1.1816 0 l0.6543 -2.8613 l4.6387 0 l-0.6543 2.8613 l2.9102 0 l-0.74219 3.2422 l-2.9395 0 c-0.087891 0.49805 -0.19531 0.94727 -0.3125 1.4453 l1.0547 0 c-0.19531 0.83984 -0.40039 1.6699 -0.57617 2.5195 c-0.36133 1.6504 0.9375 1.5137 1.4355 0.49805 l1.3574 0 l-0.76172 3.3789 c-1.377 0.11719 -3.6328 0.29297 -5.166 -0.019531 c-1.7773 -0.38086 -1.9141 -2.0703 -1.5527 -3.6719 z"/>
  </g>
</svg>